<svg width="16" height="16" viewBox="0 0 16 16" fill="none" xmlns="http://www.w3.org/2000/svg">
<g clip-path="url(#clip0_676_17118)">
<path fill="none" d="M14.6667 7.39052V8.00386C14.6658 9.44147 14.2003 10.8403 13.3396 11.9917C12.4788 13.1432 11.2689 13.9855 9.89024 14.3931C8.51162 14.8007 7.03817 14.7518 5.68965 14.2536C4.34112 13.7554 3.18977 12.8346 2.40731 11.6286C1.62484 10.4225 1.25319 8.9959 1.34778 7.5614C1.44237 6.1269 1.99814 4.76141 2.93219 3.66857C3.86623 2.57574 5.12852 1.81411 6.53079 1.49729C7.93306 1.18046 9.40018 1.32541 10.7133 1.91052M14.6667 2.66671L8 9.34004L6 7.34004" stroke="#1B9DC4" stroke-width="1.5" stroke-linecap="round" stroke-linejoin="round"/>
</g>
<defs>
<clipPath id="clip0_676_17118">
<rect width="16" height="16" fill="white"/>
</clipPath>
</defs>
</svg>
