<svg xmlns="http://www.w3.org/2000/svg" fill="none" viewBox="0 0 24 24"><path stroke="currentColor" stroke-linecap="round" stroke-linejoin="round" stroke-width="2" d="m21 3-8 8.5m-3.55-.41a8.3 8.3 0 0 1-6.45 0C3.5 17.53 6.5 20 10.5 21c0 0 3.03-2.13 3.46-7.2.05-.54.07-.81-.04-1.12s-.34-.53-.79-.98c-.73-.72-1.1-1.09-1.54-1.18s-1 .13-2.14.57"/><path stroke="currentColor" stroke-linecap="round" stroke-linejoin="round" stroke-width="2" d="M4.5 16.45s2.5.48 5-1.45m-1-7.75a1.25 1.25 0 1 1-2.5 0 1.25 1.25 0 0 1 2.5 0M11 4v.1"/></svg>