<svg width="24" height="24" viewBox="0 0 24 24" fill="none" xmlns="http://www.w3.org/2000/svg">
<path d="M6.25466 16C5.4638 14.8661 5 13.4872 5 12C5 11.4851 5.05559 10.9832 5.1611 10.5M17.7453 16C18.5362 14.8662 19 13.4872 19 12C19 8.13401 15.866 5 12 5C11.5779 5 11.1645 5.03737 10.7629 5.10897M7.50009 7.5L12.0001 12M2 12C2 17.5228 6.47715 22 12 22C17.5228 22 22 17.5228 22 12C22 6.47715 17.5228 2 12 2C6.47715 2 2 6.47715 2 12ZM11 12C11 12.5523 11.4477 13 12 13C12.5523 13 13 12.5523 13 12C13 11.4477 12.5523 11 12 11C11.4477 11 11 11.4477 11 12Z" stroke="currentColor" stroke-width="2" stroke-linecap="round" stroke-linejoin="round" fill="none"/>
</svg>
